<svg version="1.1" id="Layer_1" xmlns="http://www.w3.org/2000/svg" xmlns:xlink="http://www.w3.org/1999/xlink" x="0px" y="0px"
	 width="100%" viewBox="0 0 512 512" enable-background="new 0 0 512 512" xml:space="preserve">
<path fill="#ACABB1" opacity="1.000000" stroke="none" 
	d="
M264.000000,1.000000 
	C325.354218,1.000000 386.708466,1.000000 448.531128,1.468657 
	C449.054535,32.953846 449.109467,63.970375 449.096832,95.451225 
	C449.075226,126.896919 449.121185,157.878296 449.100708,189.336487 
	C449.082336,220.816940 449.130402,251.820618 449.112244,283.304688 
	C449.076874,314.628479 449.107819,345.471863 449.093018,376.761963 
	C449.031525,393.314392 449.045410,409.420197 448.991394,425.525787 
	C448.940735,440.629852 448.818146,455.733704 448.280945,470.910645 
	C435.015533,470.990997 422.196411,471.013397 409.377289,471.002991 
	C360.932983,470.963745 312.488678,470.913879 264.028198,470.407837 
	C263.986542,413.134918 263.961060,356.322083 264.400208,299.424988 
	C272.676727,299.302368 280.488556,299.243805 288.300446,299.230499 
	C299.446808,299.211517 299.359680,299.230225 298.777466,288.099243 
	C298.622498,285.135803 297.597717,283.975830 294.598694,284.038177 
	C287.952179,284.176270 281.294098,283.898163 274.653931,284.145386 
	C270.965790,284.282715 269.712036,283.104462 269.791809,279.348755 
	C270.010590,269.046783 269.866486,258.737091 269.866119,248.430466 
	C269.865967,244.484421 269.866119,240.538361 269.866119,236.328613 
	C267.471802,236.113770 265.690338,235.953903 263.932312,235.342072 
	C263.947388,230.307373 263.939087,225.724670 264.395264,221.092422 
	C268.433014,221.042892 272.006317,221.042892 276.121094,221.042892 
	C276.121094,214.153030 276.121094,208.226181 276.121094,202.524063 
	C280.700714,200.719284 283.173950,202.173645 285.031647,205.968872 
	C287.076447,210.146301 289.538483,214.130371 291.998260,218.087067 
	C292.713409,219.237411 294.007385,220.767944 295.098694,220.820389 
	C300.798737,221.094254 306.518982,220.948212 313.130920,220.948212 
	C308.433380,212.680420 304.268646,205.350388 300.244995,198.268677 
	C300.436432,197.715530 300.452515,197.531754 300.549072,197.413956 
	C300.968719,196.902100 301.384918,196.382767 301.850372,195.913849 
	C308.896271,188.815643 311.030518,180.553329 307.100525,171.247498 
	C303.200439,162.012466 296.123688,157.454346 285.912170,157.689026 
	C278.594269,157.857193 271.265930,157.571167 263.949890,157.051239 
	C263.971710,104.743141 263.985870,52.871571 264.000000,1.000000 
M350.734741,296.930969 
	C365.626892,303.403656 382.440857,298.774841 390.969299,285.854584 
	C399.849335,272.401672 397.862457,254.879623 386.218140,243.954071 
	C374.988892,233.417984 357.030579,232.769455 344.448456,242.445618 
	C325.771790,256.808777 328.679993,284.880066 350.734741,296.930969 
M333.080627,219.123856 
	C334.240448,219.748657 335.362030,220.806198 336.567657,220.912781 
	C339.542145,221.175690 342.575256,220.784882 345.547791,221.058640 
	C349.377930,221.411362 350.385162,219.818451 350.324677,216.176987 
	C350.133850,204.689423 350.211823,193.196457 350.268311,181.705994 
	C350.318481,171.504028 349.185242,173.053986 358.972137,172.868256 
	C370.413605,172.651154 368.535156,174.812958 368.923737,162.742935 
	C369.052612,158.738220 367.633667,157.603394 363.761810,157.662460 
	C350.941803,157.858047 338.115387,157.610886 325.294403,157.771729 
	C313.301758,157.922195 315.045258,155.334595 314.796509,168.862686 
	C314.740692,171.897614 315.858490,173.023514 318.873230,172.914825 
	C323.445221,172.750000 328.027527,172.871765 333.018188,172.871765 
	C333.018188,188.595795 333.018188,203.393585 333.080627,219.123856 
M323.186859,259.500031 
	C323.185120,253.007385 323.321075,246.509430 323.070343,240.026413 
	C323.017578,238.661377 321.634918,236.273407 320.712494,236.196930 
	C315.988373,235.805328 311.214355,236.015778 305.967773,236.015778 
	C305.967773,238.550278 305.967743,240.346970 305.967743,242.143677 
	C305.967712,257.126709 305.967712,272.109711 305.967712,287.092743 
	C305.967712,299.488678 305.967041,299.360016 318.354401,299.291992 
	C322.006958,299.271912 323.324707,298.227234 323.257629,294.460205 
	C323.056091,283.143341 323.186462,271.820496 323.186859,259.500031 
z"/>
<path fill="#818085" opacity="1.000000" stroke="none" 
	d="
M263.531342,1.000000 
	C263.985870,52.871571 263.971710,104.743141 263.516785,157.087631 
	C261.639099,157.693451 260.202240,157.826355 258.671570,157.967941 
	C258.671570,179.140610 258.671570,199.880356 258.671570,220.762421 
	C260.637238,220.904266 262.283997,221.023117 263.930786,221.141953 
	C263.939087,225.724670 263.947388,230.307373 263.479370,235.397736 
	C259.564636,235.905396 256.126190,235.905396 252.599365,235.905396 
	C252.599365,257.334106 252.599365,278.123901 252.599365,299.509277 
	C256.667755,299.509277 260.301666,299.509277 263.935577,299.509277 
	C263.961060,356.322083 263.986542,413.134918 263.562073,470.484131 
	C235.679169,471.032135 208.246201,471.069489 180.813263,471.046509 
	C161.531113,471.030334 142.249023,470.932037 122.871231,470.775391 
	C122.509354,470.540741 122.302940,470.618774 122.187683,470.987213 
	C122.219040,471.059875 122.083145,471.141052 121.628227,470.997925 
	C107.038910,470.882935 92.904518,470.911133 78.624695,470.624207 
	C78.700058,468.193634 79.113693,466.078217 79.114113,463.962738 
	C79.144287,311.639435 79.142143,159.316116 79.135727,6.992811 
	C79.135643,4.995205 79.047203,2.997604 79.000000,1.000000 
	C140.354233,1.000000 201.708450,1.000000 263.531342,1.000000 
M207.639603,220.077057 
	C221.121063,223.758591 232.878647,220.687927 241.928787,210.062439 
	C250.711563,199.750824 252.228531,187.854980 246.353226,175.571732 
	C240.492645,163.319336 230.392426,157.055084 216.795990,157.188156 
	C201.346298,157.339355 188.582748,168.505325 185.708786,183.853439 
	C182.863815,199.046738 191.340622,213.463379 207.639603,220.077057 
M196.709518,239.043854 
	C182.591782,247.147507 176.356766,260.819946 180.055283,275.564056 
	C183.487167,289.245209 195.709381,299.357605 209.498154,299.924438 
	C223.015488,300.480103 235.192993,293.004059 240.715576,280.759338 
	C246.072754,268.881378 243.281052,254.172974 233.882965,244.761261 
	C224.455368,235.319962 210.625214,233.036804 196.709518,239.043854 
M159.894363,201.541153 
	C171.440216,200.060196 178.829575,193.203781 180.047928,182.841125 
	C181.292725,172.253479 175.860962,161.176987 165.993332,159.221283 
	C154.988724,157.040207 143.445923,157.574509 132.066879,156.922882 
	C132.066879,179.131119 132.066879,199.842117 132.066879,220.691223 
	C137.816422,220.691223 143.209305,220.691223 149.120422,220.691223 
	C149.120422,214.309937 149.120422,208.230545 149.120422,201.595764 
	C152.758942,201.595764 155.882294,201.595764 159.894363,201.541153 
M136.577316,299.305908 
	C140.533493,299.305908 144.489685,299.305908 149.131500,299.305908 
	C149.131500,291.224945 149.131500,283.678925 149.131500,275.715790 
	C156.435440,275.715790 163.044357,275.715790 169.839676,275.715790 
	C169.839676,270.900513 169.839676,266.533783 169.839676,261.519165 
	C162.725082,261.519165 155.999649,261.519165 149.323303,261.519165 
	C149.323303,257.759155 149.323303,254.660034 149.323303,250.942749 
	C157.991699,250.942749 166.383698,250.942749 174.660873,250.942749 
	C174.660873,245.586975 174.660873,240.872971 174.660873,236.370361 
	C160.145721,236.370361 146.075348,236.370361 131.732162,236.370361 
	C131.732162,256.613586 131.765518,276.434967 131.696396,296.255981 
	C131.685974,299.247437 133.438080,299.393799 136.577316,299.305908 
z"/>
<path fill="#000000" opacity="1.000000" stroke="none" 
	d="
M78.531342,1.000000 
	C79.047203,2.997604 79.135643,4.995205 79.135727,6.992811 
	C79.142143,159.316116 79.144287,311.639435 79.114113,463.962738 
	C79.113693,466.078217 78.700058,468.193634 78.716469,471.091370 
	C78.969109,485.582428 78.984558,499.291199 79.000000,513.000000 
	C53.017036,513.000000 27.034073,513.000000 1.053825,513.000000 
	C1.056542,342.333313 1.056542,171.666656 1.056542,1.000000 
	C26.762951,1.000000 52.412815,1.000000 78.531342,1.000000 
z"/>
<path fill="#000000" opacity="1.000000" stroke="none" 
	d="
M122.966896,470.870422 
	C142.249023,470.932037 161.531113,471.030334 180.813263,471.046509 
	C208.246201,471.069489 235.679169,471.032135 263.578247,470.944275 
	C312.488678,470.913879 360.932983,470.963745 409.377289,471.002991 
	C422.196411,471.013397 435.015533,470.990997 448.770538,470.982788 
	C458.994446,470.981903 468.282501,470.981903 477.385498,470.981903 
	C477.694275,470.292206 477.934570,470.006165 477.934296,469.720367 
	C477.904388,438.561279 477.856506,407.402222 477.888672,375.755371 
	C477.928314,344.487976 477.888916,313.708405 477.917816,282.469086 
	C477.951385,250.703537 477.916687,219.397720 477.918121,187.618713 
	C477.968719,158.157547 477.901489,129.169052 478.087189,100.182159 
	C478.114502,95.921303 476.707642,94.776993 472.651947,94.918648 
	C464.831512,95.191811 456.994537,94.991127 449.164398,94.986908 
	C449.109467,63.970375 449.054535,32.953846 448.999817,1.468657 
	C470.323669,1.000000 491.647339,1.000000 512.978271,0.999999 
	C512.985474,171.579773 512.985474,342.159546 512.985474,513.000000 
	C382.979218,513.000000 252.958267,513.000000 122.468475,512.531372 
	C122.027473,498.422150 122.055313,484.781586 122.083145,471.141052 
	C122.083145,471.141052 122.219040,471.059875 122.391571,471.011871 
	C122.564110,470.963867 122.966896,470.870422 122.966896,470.870422 
z"/>
<path fill="#D80027" opacity="1.000000" stroke="none" 
	d="
M121.628227,470.997925 
	C122.055313,484.781586 122.027473,498.422150 121.999817,512.531372 
	C120.933327,513.000000 119.866661,513.000000 118.629807,512.681763 
	C113.608574,508.915985 108.568802,505.698730 103.977158,501.934814 
	C101.214615,499.670258 99.267860,500.208740 96.780319,502.015869 
	C92.967064,504.786011 88.944374,507.267548 85.124596,510.029266 
	C84.189339,510.705475 83.696320,511.993347 82.999992,513.000000 
	C81.933327,513.000000 80.866661,513.000000 79.399994,513.000000 
	C78.984558,499.291199 78.969109,485.582428 78.861893,471.406494 
	C92.904518,470.911133 107.038910,470.882935 121.628227,470.997925 
z"/>
<path fill="#000000" opacity="1.000000" stroke="none" 
	d="
M83.468651,513.000000 
	C83.696320,511.993347 84.189339,510.705475 85.124596,510.029266 
	C88.944374,507.267548 92.967064,504.786011 96.780319,502.015869 
	C99.267860,500.208740 101.214615,499.670258 103.977158,501.934814 
	C108.568802,505.698730 113.608574,508.915985 118.229813,512.681763 
	C106.645775,513.000000 95.291542,513.000000 83.468651,513.000000 
z"/>
<path fill="#FFDA44" opacity="1.000000" stroke="none" 
	d="
M477.809662,376.243164 
	C477.856506,407.402222 477.904388,438.561279 477.934296,469.720367 
	C477.934570,470.006165 477.694275,470.292206 477.385498,470.981903 
	C468.282501,470.981903 458.994446,470.981903 449.216797,470.909790 
	C448.818146,455.733704 448.940735,440.629852 448.991394,425.525787 
	C449.045410,409.420197 449.031525,393.314392 449.550598,376.745941 
	C459.067932,376.229584 468.081879,376.175995 477.272705,376.160095 
	C477.449585,376.197845 477.809662,376.243164 477.809662,376.243164 
z"/>
<path fill="#6C0014" opacity="1.000000" stroke="none" 
	d="
M449.096832,95.451225 
	C456.994537,94.991127 464.831512,95.191811 472.651947,94.918648 
	C476.707642,94.776993 478.114502,95.921303 478.087189,100.182159 
	C477.901489,129.169052 477.968719,158.157547 477.699493,187.664154 
	C477.166809,188.324432 476.966858,188.538834 476.386536,188.845383 
	C467.007843,188.863113 458.087494,188.861404 449.167145,188.859680 
	C449.121185,157.878296 449.075226,126.896919 449.096832,95.451225 
z"/>
<path fill="#D80027" opacity="1.000000" stroke="none" 
	d="
M449.100708,189.336487 
	C458.087494,188.861404 467.007843,188.863113 476.428162,189.326691 
	C476.897827,220.726349 476.867584,251.664139 476.385437,282.676941 
	C467.015198,282.776062 458.096832,282.800171 449.178497,282.824280 
	C449.130402,251.820618 449.082336,220.816940 449.100708,189.336487 
z"/>
<path fill="#FF5023" opacity="1.000000" stroke="none" 
	d="
M449.112244,283.304688 
	C458.096832,282.800171 467.015198,282.776062 476.432800,282.796387 
	C476.932098,282.840820 477.022125,283.081512 477.019043,283.542114 
	C477.042572,314.709290 477.069214,345.415833 477.095856,376.122375 
	C468.081879,376.175995 459.067932,376.229584 449.596375,376.299255 
	C449.107819,345.471863 449.076874,314.628479 449.112244,283.304688 
z"/>
<path fill="#FEFEFE" opacity="1.000000" stroke="none" 
	d="
M264.395264,221.092422 
	C262.283997,221.023117 260.637238,220.904266 258.671570,220.762421 
	C258.671570,199.880356 258.671570,179.140610 258.671570,157.967941 
	C260.202240,157.826355 261.639099,157.693451 263.509094,157.524170 
	C271.265930,157.571167 278.594269,157.857193 285.912170,157.689026 
	C296.123688,157.454346 303.200439,162.012466 307.100525,171.247498 
	C311.030518,180.553329 308.896271,188.815643 301.850372,195.913849 
	C301.384918,196.382767 300.968719,196.902100 300.549072,197.413956 
	C300.452515,197.531754 300.436432,197.715530 300.244995,198.268677 
	C304.268646,205.350388 308.433380,212.680420 313.130920,220.948212 
	C306.518982,220.948212 300.798737,221.094254 295.098694,220.820389 
	C294.007385,220.767944 292.713409,219.237411 291.998260,218.087067 
	C289.538483,214.130371 287.076447,210.146301 285.031647,205.968872 
	C283.173950,202.173645 280.700714,200.719284 276.121094,202.524063 
	C276.121094,208.226181 276.121094,214.153030 276.121094,221.042892 
	C272.006317,221.042892 268.433014,221.042892 264.395264,221.092422 
M284.263428,186.170868 
	C289.500641,185.822998 291.182220,184.114685 291.079712,179.292206 
	C290.983826,174.781967 288.814972,172.558884 284.195496,172.855133 
	C282.374573,172.971909 280.527649,172.764191 278.718811,172.954025 
	C277.852997,173.044876 276.349396,173.682388 276.326477,174.132980 
	C276.141907,177.759796 275.773468,181.510132 276.577972,184.962509 
	C276.783295,185.843445 280.980438,185.794159 284.263428,186.170868 
z"/>
<path fill="#FEFEFE" opacity="1.000000" stroke="none" 
	d="
M350.396484,296.762115 
	C328.679993,284.880066 325.771790,256.808777 344.448456,242.445618 
	C357.030579,232.769455 374.988892,233.417984 386.218140,243.954071 
	C397.862457,254.879623 399.849335,272.401672 390.969299,285.854584 
	C382.440857,298.774841 365.626892,303.403656 350.396484,296.762115 
M375.071747,279.486450 
	C378.684143,274.255798 379.812653,268.608459 378.156982,262.394928 
	C376.161194,254.904922 371.116577,250.842194 363.811615,251.024307 
	C356.958466,251.195160 351.640411,256.055939 350.223053,263.444366 
	C348.679626,271.489807 351.705353,279.449402 357.568359,282.767212 
	C362.610596,285.620605 369.553192,284.513275 375.071747,279.486450 
z"/>
<path fill="#FEFEFE" opacity="1.000000" stroke="none" 
	d="
M333.049408,218.657608 
	C333.018188,203.393585 333.018188,188.595795 333.018188,172.871765 
	C328.027527,172.871765 323.445221,172.750000 318.873230,172.914825 
	C315.858490,173.023514 314.740692,171.897614 314.796509,168.862686 
	C315.045258,155.334595 313.301758,157.922195 325.294403,157.771729 
	C338.115387,157.610886 350.941803,157.858047 363.761810,157.662460 
	C367.633667,157.603394 369.052612,158.738220 368.923737,162.742935 
	C368.535156,174.812958 370.413605,172.651154 358.972137,172.868256 
	C349.185242,173.053986 350.318481,171.504028 350.268311,181.705994 
	C350.211823,193.196457 350.133850,204.689423 350.324677,216.176987 
	C350.385162,219.818451 349.377930,221.411362 345.547791,221.058640 
	C342.575256,220.784882 339.542145,221.175690 336.567657,220.912781 
	C335.362030,220.806198 334.240448,219.748657 333.049408,218.657608 
z"/>
<path fill="#FDFDFD" opacity="1.000000" stroke="none" 
	d="
M264.400208,299.424988 
	C260.301666,299.509277 256.667755,299.509277 252.599365,299.509277 
	C252.599365,278.123901 252.599365,257.334106 252.599365,235.905396 
	C256.126190,235.905396 259.564636,235.905396 263.455994,235.849731 
	C265.690338,235.953903 267.471802,236.113770 269.866119,236.328613 
	C269.866119,240.538361 269.865967,244.484421 269.866119,248.430466 
	C269.866486,258.737091 270.010590,269.046783 269.791809,279.348755 
	C269.712036,283.104462 270.965790,284.282715 274.653931,284.145386 
	C281.294098,283.898163 287.952179,284.176270 294.598694,284.038177 
	C297.597717,283.975830 298.622498,285.135803 298.777466,288.099243 
	C299.359680,299.230225 299.446808,299.211517 288.300446,299.230499 
	C280.488556,299.243805 272.676727,299.302368 264.400208,299.424988 
z"/>
<path fill="#FFFFFF" opacity="1.000000" stroke="none" 
	d="
M323.187073,260.000000 
	C323.186462,271.820496 323.056091,283.143341 323.257629,294.460205 
	C323.324707,298.227234 322.006958,299.271912 318.354401,299.291992 
	C305.967041,299.360016 305.967712,299.488678 305.967712,287.092743 
	C305.967712,272.109711 305.967712,257.126709 305.967743,242.143677 
	C305.967743,240.346970 305.967773,238.550278 305.967773,236.015778 
	C311.214355,236.015778 315.988373,235.805328 320.712494,236.196930 
	C321.634918,236.273407 323.017578,238.661377 323.070343,240.026413 
	C323.321075,246.509430 323.185120,253.007385 323.187073,260.000000 
z"/>
<path fill="#FDFDFD" opacity="1.000000" stroke="none" 
	d="
M207.258255,219.965698 
	C191.340622,213.463379 182.863815,199.046738 185.708786,183.853439 
	C188.582748,168.505325 201.346298,157.339355 216.795990,157.188156 
	C230.392426,157.055084 240.492645,163.319336 246.353226,175.571732 
	C252.228531,187.854980 250.711563,199.750824 241.928787,210.062439 
	C232.878647,220.687927 221.121063,223.758591 207.258255,219.965698 
M207.481750,202.002365 
	C217.189896,209.908340 228.816956,206.071152 231.222702,193.820724 
	C231.955215,190.090698 231.585632,185.841522 230.578659,182.140915 
	C228.911880,176.015594 223.787704,172.808365 217.423706,172.791351 
	C211.033691,172.774277 206.268890,175.986038 204.199249,182.114227 
	C201.886368,188.962769 202.489136,195.515533 207.481750,202.002365 
z"/>
<path fill="#FDFDFD" opacity="1.000000" stroke="none" 
	d="
M197.057144,238.891541 
	C210.625214,233.036804 224.455368,235.319962 233.882965,244.761261 
	C243.281052,254.172974 246.072754,268.881378 240.715576,280.759338 
	C235.192993,293.004059 223.015488,300.480103 209.498154,299.924438 
	C195.709381,299.357605 183.487167,289.245209 180.055283,275.564056 
	C176.356766,260.819946 182.591782,247.147507 197.057144,238.891541 
M197.191071,263.182892 
	C197.140228,265.841888 196.769745,268.540741 197.095444,271.152771 
	C198.318848,280.964355 206.758804,286.564240 215.852097,283.793732 
	C222.188141,281.863281 226.535767,274.019989 225.755814,265.927002 
	C224.959396,257.663300 220.267380,252.081543 213.311279,251.122665 
	C205.773331,250.083557 200.395325,253.884079 197.191071,263.182892 
z"/>
<path fill="#FEFEFE" opacity="1.000000" stroke="none" 
	d="
M159.450012,201.568451 
	C155.882294,201.595764 152.758942,201.595764 149.120422,201.595764 
	C149.120422,208.230545 149.120422,214.309937 149.120422,220.691223 
	C143.209305,220.691223 137.816422,220.691223 132.066879,220.691223 
	C132.066879,199.842117 132.066879,179.131119 132.066879,156.922882 
	C143.445923,157.574509 154.988724,157.040207 165.993332,159.221283 
	C175.860962,161.176987 181.292725,172.253479 180.047928,182.841125 
	C178.829575,193.203781 171.440216,200.060196 159.450012,201.568451 
M161.626862,184.240326 
	C161.436462,180.952332 162.468445,175.976715 160.781540,174.754852 
	C157.946182,172.701172 153.382126,173.034149 149.347046,172.328354 
	C149.347046,177.689270 149.347046,181.735764 149.347046,186.802811 
	C153.558929,186.111923 157.326065,185.493973 161.626862,184.240326 
z"/>
<path fill="#FFFFFF" opacity="1.000000" stroke="none" 
	d="
M136.088104,299.304321 
	C133.438080,299.393799 131.685974,299.247437 131.696396,296.255981 
	C131.765518,276.434967 131.732162,256.613586 131.732162,236.370361 
	C146.075348,236.370361 160.145721,236.370361 174.660873,236.370361 
	C174.660873,240.872971 174.660873,245.586975 174.660873,250.942749 
	C166.383698,250.942749 157.991699,250.942749 149.323303,250.942749 
	C149.323303,254.660034 149.323303,257.759155 149.323303,261.519165 
	C155.999649,261.519165 162.725082,261.519165 169.839676,261.519165 
	C169.839676,266.533783 169.839676,270.900513 169.839676,275.715790 
	C163.044357,275.715790 156.435440,275.715790 149.131500,275.715790 
	C149.131500,283.678925 149.131500,291.224945 149.131500,299.305908 
	C144.489685,299.305908 140.533493,299.305908 136.088104,299.304321 
z"/>
<path fill="#919195" opacity="1.000000" stroke="none" 
	d="
M122.871231,470.775391 
	C122.966896,470.870422 122.564110,470.963867 122.360214,470.939209 
	C122.302940,470.618774 122.509354,470.540741 122.871231,470.775391 
z"/>
<path fill="#EA3629" opacity="1.000000" stroke="none" 
	d="
M476.884705,282.721375 
	C476.867584,251.664139 476.897827,220.726349 476.886475,189.307251 
	C476.966858,188.538834 477.166809,188.324432 477.663361,188.137329 
	C477.916687,219.397720 477.951385,250.703537 477.709106,282.497437 
	C477.432129,282.985474 477.022125,283.081512 477.022125,283.081512 
	C477.022125,283.081512 476.932098,282.840820 476.884705,282.721375 
z"/>
<path fill="#FF8831" opacity="1.000000" stroke="none" 
	d="
M477.019043,283.542114 
	C477.022125,283.081512 477.432129,282.985474 477.640839,282.957153 
	C477.888916,313.708405 477.928314,344.487976 477.888672,375.755371 
	C477.809662,376.243164 477.449585,376.197845 477.272705,376.160095 
	C477.069214,345.415833 477.042572,314.709290 477.019043,283.542114 
z"/>
<path fill="#ADACB2" opacity="1.000000" stroke="none" 
	d="
M283.803467,186.171570 
	C280.980438,185.794159 276.783295,185.843445 276.577972,184.962509 
	C275.773468,181.510132 276.141907,177.759796 276.326477,174.132980 
	C276.349396,173.682388 277.852997,173.044876 278.718811,172.954025 
	C280.527649,172.764191 282.374573,172.971909 284.195496,172.855133 
	C288.814972,172.558884 290.983826,174.781967 291.079712,179.292206 
	C291.182220,184.114685 289.500641,185.822998 283.803467,186.171570 
z"/>
<path fill="#ADACB2" opacity="1.000000" stroke="none" 
	d="
M374.826538,279.770081 
	C369.553192,284.513275 362.610596,285.620605 357.568359,282.767212 
	C351.705353,279.449402 348.679626,271.489807 350.223053,263.444366 
	C351.640411,256.055939 356.958466,251.195160 363.811615,251.024307 
	C371.116577,250.842194 376.161194,254.904922 378.156982,262.394928 
	C379.812653,268.608459 378.684143,274.255798 374.826538,279.770081 
z"/>
<path fill="#838287" opacity="1.000000" stroke="none" 
	d="
M207.230316,201.724670 
	C202.489136,195.515533 201.886368,188.962769 204.199249,182.114227 
	C206.268890,175.986038 211.033691,172.774277 217.423706,172.791351 
	C223.787704,172.808365 228.911880,176.015594 230.578659,182.140915 
	C231.585632,185.841522 231.955215,190.090698 231.222702,193.820724 
	C228.816956,206.071152 217.189896,209.908340 207.230316,201.724670 
z"/>
<path fill="#838287" opacity="1.000000" stroke="none" 
	d="
M197.294968,262.775269 
	C200.395325,253.884079 205.773331,250.083557 213.311279,251.122665 
	C220.267380,252.081543 224.959396,257.663300 225.755814,265.927002 
	C226.535767,274.019989 222.188141,281.863281 215.852097,283.793732 
	C206.758804,286.564240 198.318848,280.964355 197.095444,271.152771 
	C196.769745,268.540741 197.140228,265.841888 197.294968,262.775269 
z"/>
<path fill="#848388" opacity="1.000000" stroke="none" 
	d="
M161.360016,184.558182 
	C157.326065,185.493973 153.558929,186.111923 149.347046,186.802811 
	C149.347046,181.735764 149.347046,177.689270 149.347046,172.328354 
	C153.382126,173.034149 157.946182,172.701172 160.781540,174.754852 
	C162.468445,175.976715 161.436462,180.952332 161.360016,184.558182 
z"/>
</svg>